<?xml version="1.0" encoding="utf-8"?>
<!-- Generator: Adobe Illustrator 26.0.0, SVG Export Plug-In . SVG Version: 6.00 Build 0)  -->
<svg version="1.1" id="Слой_1" xmlns="http://www.w3.org/2000/svg" xmlns:xlink="http://www.w3.org/1999/xlink" x="0px" y="0px"
	 viewBox="0 0 595.3 223" style="enable-background:new 0 0 595.3 223;" xml:space="preserve">
<style type="text/css">
	.st0{fill-rule:evenodd;clip-rule:evenodd;fill:#364A5E;}
</style>
<g>
	<path class="st0" d="M583.9,12.3c-3.7-3.9-8-7-12.7-9.1S561.2,0,556.1,0c-5,0-10.4,1.1-15.1,3.2c-4.7,2.1-9,5.3-12.7,9.1
		L399.5,150.9c-7.4,8.1-11.4,18.6-11.4,29.9s4,21.8,11.4,29.9c3.7,3.9,8,7,12.7,9.1s10,3.2,15.1,3.2c5,0,10.4-1.1,15.1-3.2
		s9-5.3,12.7-9.1L583.9,72.1c7.4-8.1,11.4-18.6,11.4-29.9C595.3,31.3,591.3,20.4,583.9,12.3z"/>
	<path class="st0" d="M271.7,12.3c3.7-3.9,8-7,12.7-9.1s10-3.2,15.1-3.2s10.4,1.1,15.1,3.2c4.7,2.1,9,5.3,12.7,9.1l128.8,138.6
		c7.4,8.1,11.4,18.6,11.4,29.9s-4,21.8-11.4,29.9c-3.7,3.9-8,7-12.7,9.1s-10,3.2-15.1,3.2c-5,0-10.4-1.1-15.1-3.2s-9-5.3-12.7-9.1
		L271.7,72.1c-7.4-8.1-11.4-18.6-11.4-29.9C260.3,30.9,264.4,20.4,271.7,12.3z"/>
	<path class="st0" d="M323.2,12.3c-3.7-3.9-8-7-12.7-9.1S300.5,0,295.4,0c-5,0-10.4,1.1-15.1,3.2c-4.7,2.1-9,5.3-12.7,9.1
		L138.9,150.9c-7.4,8.1-11.4,18.6-11.4,29.9s4,21.8,11.4,29.9c3.7,3.9,8,7,12.7,9.1s10,3.2,15.1,3.2s10.4-1.1,15.1-3.2
		c4.7-2.1,9-5.3,12.7-9.1L323.2,72.1c7.4-8.1,11.4-18.6,11.4-29.9S330.6,20.4,323.2,12.3z"/>
	<path class="st0" d="M11.4,12.3c3.7-3.9,8-7,12.7-9.1S34.1,0,39.2,0s10.4,1.1,15.1,3.2c4.7,2.1,9,5.3,12.7,9.1l128.8,138.6
		c7.4,8.1,11.4,18.6,11.4,29.9s-4,21.8-11.4,29.9c-3.7,3.9-8,7-12.7,9.1s-10,3.2-15.1,3.2s-10.4-1.1-15.1-3.2
		c-4.7-2.1-9-5.3-12.7-9.1L11.4,72.1C4,64,0,53.5,0,42.2S4,20.4,11.4,12.3z"/>
</g>
</svg>
